<svg xmlns="http://www.w3.org/2000/svg" viewBox="0 0 194.2 167.9"><defs><style>      .cls-1 {        fill: #fff;      }      .cls-2 {        fill: #0e7b9b;      }      .cls-3 {        fill: #2db782;      }    </style></defs><g><g id="Layer_1"><g><g id="Group_12332"><path id="Path_93" class="cls-2" d="M108.2,18.8l-12.4,12.5,52.3,52.3c7.6,7.6,19.9,9,28.2,2.2,8.8-7.1,10.1-20,3-28.8-.4-.5-.9-1.1-1.4-1.6l-36.6-36.6c-9.1-9.1-23.9-9.1-33,0,0,0,0,0,0,0Z"></path><path id="Path_94" class="cls-3" d="M148.9,84.4l-53.1-53.1-22.1,22.1c-9.1,9.1-9.1,23.9,0,33h0s36.6,36.6,36.6,36.6c8,8,8,20.9,0,28.9,0,0,0,0,0,0l14.5-14.5,38.6-38.6,14.5-14.5c-8,8-20.9,8-28.9,0,0,0,0,0,0,0h0s0,0,0,0Z"></path></g><path id="Path_95" class="cls-1" d="M50.3,18.8L15.7,53.4c-9.1,9.1-9.1,23.9,0,33,0,0,0,0,0,0l64.7,64.7c7.6,7.6,19.9,9,28.2,2.2,8.8-7.1,10.1-20,3-28.8-.4-.5-.9-1.1-1.4-1.6l-36.6-36.6c-9.1-9.1-9.1-23.9,0-33,0,0,0,0,0,0l22.1-22.1-12.5-12.4c-9.1-9.1-23.9-9.1-33,0,0,0,0,0,0,0h0ZM36.3,77.3c-3.4,3.4-8.8,3.4-12.2,0-3.4-3.4-3.4-8.8,0-12.2,3.4-3.4,8.8-3.4,12.2,0h0c3.4,3.4,3.4,8.8,0,12.2,0,0,0,0,0,0Z"></path></g></g></g></svg>